<?xml version="1.0" encoding="utf-8"?>
<!-- Generator: Adobe Illustrator 23.1.0, SVG Export Plug-In . SVG Version: 6.00 Build 0)  -->
<svg version="1.1" id="Camada_1" xmlns="http://www.w3.org/2000/svg" xmlns:xlink="http://www.w3.org/1999/xlink" x="0px" y="0px"
	 viewBox="0 0 172 184.6" style="enable-background:new 0 0 172 184.6;" xml:space="preserve">
<style type="text/css">
	.st0{fill:#028CCA;}
</style>
<g>
	<path class="st0" d="M46.7,30.6c30.6-11.3,52.8-19.4,57.7-21.2c0.7-0.2,2.9-1.1,6-1.6c2.3-0.4,4.7-0.5,7.1-0.3
		c2.6,0.2,5.1,1.1,7.4,2.4c3,1.7,5.5,3.9,7.5,6.7c0.3,0.5,0.6,1,1,1.6c-8,1.2-16,2.4-23.9,3.6c3.4,23.5,6.8,47.1,10.1,70.6
		c11.6,12.4,23.1,24.9,34.7,37.3c-3.9-29.7-7.8-59.3-11.7-89c15.4,39.6,26,68.8,27.5,74.5c1.2,4.7,0.7,9.1,0.7,9.1
		c-0.2,2.2-0.8,4.1-1.6,5.9c-2.2,4.9-6,7.5-8.2,9c-1.8,1.2-5,3-9.3,4C116.6,105.8,81.6,68.2,46.7,30.6z"/>
	<path class="st0" d="M125.8,1.7c2.6-0.2,9-0.2,15.1,3.8c4.7,3.1,7.2,7.3,8,8.5c1.1,1.7,1.9,3.5,2.7,5.4c0,0,1,2.4,1.7,4.9
		c1.2,4,5.7,26.5,11.5,57.4C151,45.8,140.2,19.8,137.2,15c-1.3-2.1-2.8-4.1-2.8-4.1c-2.5-3.4-5.1-6-7-7.8c0,0,0,0,0,0
		C127,2.6,126.4,2.2,125.8,1.7z"/>
	<path class="st0" d="M127.7,152.4c-30.3,11.8-52.5,20.4-57.2,22.3c-0.7,0.3-2.9,1.2-6,1.7c-2.3,0.4-4.7,0.6-7.1,0.5
		c-2.6-0.1-5.1-1-7.4-2.2c-3-1.6-5.6-3.8-7.6-6.5c-0.4-0.5-0.6-1-1-1.6c8-1.4,15.9-2.7,23.9-4.1c-3.8-23.5-7.6-46.9-11.5-70.4
		C41.9,79.9,30.1,67.6,18.2,55.4c4.5,29.6,8.9,59.2,13.4,88.8C15.5,104.9,4.4,76,2.7,70.2c-1.3-4.7-0.9-9.1-0.9-9.1
		c0.2-2.2,0.7-4.2,1.5-6c2.1-4.9,5.9-7.7,8-9.2c1.8-1.3,4.9-3.1,9.3-4.2C56.3,78.7,92,115.5,127.7,152.4z"/>
	<path class="st0" d="M49.1,182.8c-2.6,0.2-9,0.4-15.2-3.5c-4.7-3-7.3-7.1-8.1-8.4c-1.1-1.7-2-3.4-2.8-5.3c0,0-1-2.3-1.8-4.9
		c-1.3-4-6.2-26.4-12.5-57.1c14.4,35.6,25.7,61.4,28.8,66.2c1.4,2.1,2.8,4,2.8,4c2.6,3.4,5.2,5.9,7.1,7.7c0,0,0,0,0,0
		C47.9,181.9,48.5,182.4,49.1,182.8z"/>
</g>
</svg>
